Coordinates
version=1
nRows=31
nColumns=33
inDegrees=yes

Units are S.I. units (second, meters, Newtons, ...)
Angles are in degrees.

endheader
time	ground_thorax_rot_x	ground_thorax_rot_y	ground_thorax_rot_z	ground_thorax_tx	ground_thorax_ty	ground_thorax_tz	clav_prot_r	clav_elev_r	scapula_abduction_r	scapula_elevation_r	scapula_upward_rot_r	scapula_winging_r	shoulder_elv_r	plane_of_elev_r	axial_rot_r	elbow_flexion_r	pro_sup_r	wrist_flex_r	wrist_dev_r	clav_prot_l	clav_elev_l	scapula_abduction_l	scapula_elevation_l	scapula_upward_rot_l	scapula_winging_l	shoulder_elv_l	plane_of_elev_l	axial_rot_l	elbow_flexion_l	pro_sup_l	wrist_flex_l	wrist_dev_l	
12.3400	36.660761	9.777277	11.599377	-69.777545	769.269383	15.141398	10.598573	37.225435	45.000000	34.546969	-4.905099	-2972.532356	-4262.531949	28.254737	61.725606	728.684347	-331.273957	17.399607	10.784965	5.082849	-45.000000	-44.999999	45.000000	-23.540492	445.809901	-6773.417431	22.660216	-42.612764	-712.134139	-334.139962	8.549648	-19.036417	
12.3500	36.683824	9.726614	11.513474	-70.346194	769.309796	15.152479	10.464692	37.237432	45.000000	34.557823	-4.804474	-2972.569213	-4262.494523	28.268059	61.641633	728.695609	-331.281827	17.415860	10.818589	5.013083	-45.000000	-44.999998	45.000000	-23.435152	445.855687	-6773.413941	22.640690	-42.692766	-712.124058	-334.227799	8.526927	-19.030486	
12.3600	36.714930	9.663651	11.393733	-70.933417	769.349515	15.153026	10.293977	37.251216	45.000000	34.573427	-4.699461	-2972.617373	-4262.453078	28.302538	61.530360	728.717006	-331.287541	17.420669	10.870099	4.930660	-45.000000	-44.999997	45.000000	-23.393939	445.866466	-6773.371345	22.645203	-42.799404	-712.098919	-334.310870	8.491313	-19.021938	
12.3700	36.736314	9.637793	11.342241	-71.560232	769.386183	15.130707	10.215730	37.274609	45.000000	34.602468	-4.665218	-2972.659440	-4262.424196	28.324289	61.461240	728.740363	-331.277087	17.435668	10.889095	4.892395	-45.000000	-44.999994	45.000000	-23.380001	445.919768	-6773.348007	22.636587	-42.860726	-712.087006	-334.386423	8.475856	-19.021626	
12.3800	36.748988	9.635673	11.331393	-72.230633	769.421524	15.084241	10.176676	37.310180	45.000000	34.642217	-4.685138	-2972.691368	-4262.397819	28.336233	61.415152	728.772439	-331.253288	17.463866	10.897934	4.882426	-45.000000	-44.999989	45.000000	-23.381271	446.003986	-6773.340115	22.623890	-42.885140	-712.088097	-334.456726	8.461545	-19.021197	
12.3900	36.759108	9.652163	11.341811	-72.951864	769.457203	15.010844	10.175120	37.350998	45.000000	34.695565	-4.746003	-2972.725500	-4262.379841	28.348461	61.377545	728.817291	-331.218193	17.493066	10.894675	4.890517	-45.000000	-44.999981	45.000000	-23.429956	446.096217	-6773.318036	22.613874	-42.899745	-712.085967	-334.520076	8.453983	-19.025805	
12.4000	36.765603	9.682337	11.367790	-73.726841	769.496197	14.910864	10.190868	37.404160	45.000000	34.759879	-4.840257	-2972.756173	-4262.364928	28.358148	61.351029	728.871736	-331.174391	17.534156	10.885421	4.915084	-45.000000	-44.999966	45.000000	-23.480843	446.212030	-6773.307918	22.606325	-42.893037	-712.090513	-334.580268	8.444324	-19.029937	
12.4100	36.779290	9.714695	11.379402	-74.556905	769.542182	14.786084	10.209976	37.460153	45.000000	34.835107	-4.934967	-2972.797689	-4262.352748	28.373940	61.315459	728.936372	-331.127964	17.568543	10.872726	4.934711	-45.000000	-44.999939	45.000000	-23.567250	446.315045	-6773.271215	22.602621	-42.905233	-712.078878	-334.636039	8.438371	-19.039915	
12.4200	36.795995	9.748598	11.386404	-75.443692	769.598975	14.638352	10.232470	37.528331	45.000000	34.918971	-5.040420	-2972.841074	-4262.339388	28.394040	61.290848	729.002173	-331.080638	17.611608	10.857088	4.961219	-45.000000	-44.999890	45.000000	-23.639184	446.436199	-6773.250090	22.603548	-42.911468	-712.068334	-334.691741	8.428455	-19.049301	
12.4300	36.821553	9.787949	11.386740	-76.389298	769.670534	14.469418	10.257075	37.601507	45.000000	35.011975	-5.141314	-2972.889169	-4262.319369	28.409853	61.265167	729.074451	-331.037399	17.649048	10.840169	4.981348	-45.000000	-44.999803	45.000000	-23.730615	446.548934	-6773.211211	22.595039	-42.935023	-712.040531	-334.746415	8.421283	-19.064715	
12.4400	36.854924	9.823419	11.373773	-77.395586	769.760828	14.280964	10.283956	37.683981	44.999999	35.114075	-5.249923	-2972.944773	-4262.300192	28.440275	61.248293	729.143109	-331.001040	17.691671	10.820127	5.008911	-45.000000	-44.999647	45.000000	-23.813458	446.678638	-6773.185373	22.597868	-42.958223	-712.011770	-334.803205	8.408787	-19.078867	
12.4500	36.892251	9.869619	11.369550	-78.464547	769.873771	14.074418	10.309487	37.773893	44.999998	35.222556	-5.360836	-2972.989418	-4262.266271	28.449936	61.232747	729.219425	-330.974780	17.732821	10.803878	5.031573	-45.000000	-44.999368	45.000000	-23.903971	446.805298	-6773.144414	22.577394	-42.988155	-711.976248	-334.861524	8.397726	-19.096711	
12.4600	36.927384	9.917048	11.365120	-79.597702	770.013110	13.851040	10.337482	37.862433	44.999997	35.337506	-5.494244	-2973.032975	-4262.233338	28.466044	61.223041	729.296458	-330.961004	17.780127	10.787591	5.065641	-45.000000	-44.998869	45.000000	-23.990212	446.950570	-6773.108014	22.565309	-43.014171	-711.948120	-334.925182	8.378556	-19.109831	
12.4700	36.964197	9.971083	11.363836	-80.796511	770.182427	13.611803	10.366905	37.962654	44.999995	35.461021	-5.635490	-2973.069087	-4262.192866	28.470876	61.208450	729.382021	-330.961887	17.827384	10.773214	5.098969	-45.000000	-44.997973	45.000000	-24.080434	447.096794	-6773.059505	22.542200	-43.045443	-711.919305	-334.994095	8.360364	-19.124930	
12.4800	37.002040	10.018918	11.347513	-82.061995	770.385113	13.357588	10.402677	38.053825	44.999991	35.588223	-5.782091	-2973.118778	-4262.157974	28.494735	61.189799	729.464483	-330.977758	17.875305	10.753772	5.138490	-45.000000	-44.996370	45.000000	-24.166659	447.258375	-6773.010535	22.536219	-43.080164	-711.889157	-335.071703	8.336127	-19.137655	
12.4900	37.039827	10.065331	11.328637	-83.395144	770.624393	13.089230	10.434650	38.147374	44.999984	35.717092	-5.923549	-2973.167174	-4262.116493	28.513184	61.165297	729.549203	-331.007210	17.920955	10.733888	5.174004	-45.000000	-44.993495	45.000000	-24.249030	447.421658	-6772.949332	22.522594	-43.123203	-711.861148	-335.157934	8.315320	-19.152396	
12.5000	37.073472	10.107885	11.301396	-84.796738	770.903255	12.807757	10.468357	38.222985	44.999971	35.843291	-6.072538	-2973.225408	-4262.069921	28.544827	61.139359	729.635935	-331.048313	17.968765	10.710588	5.213307	-45.000000	-44.988357	45.000000	-24.326345	447.599649	-6772.881134	22.519967	-43.171893	-711.829298	-335.258967	8.289023	-19.165268	
12.5100	37.116212	10.144433	11.257144	-86.267406	771.224385	12.514496	10.501363	38.307806	44.999948	35.976705	-6.218569	-2973.295025	-4262.021093	28.589368	61.101334	729.722642	-331.098293	18.012215	10.680916	5.249214	-45.000000	-44.979119	45.000000	-24.407729	447.777414	-6772.806117	22.525259	-43.234471	-711.791729	-335.376460	8.269075	-19.182420	
12.5200	37.156975	10.188109	11.223029	-87.807436	771.590104	12.211192	10.534331	38.375454	44.999908	36.104984	-6.380696	-2973.359233	-4261.948096	28.631594	61.059209	729.817578	-331.151441	18.062674	10.653701	5.283683	-45.000000	-44.962668	45.000000	-24.486618	447.969214	-6772.726791	22.523428	-43.291292	-711.742031	-335.519602	8.242817	-19.199711	
12.5300	37.207324	10.237096	11.195409	-89.416618	772.002371	11.900060	10.570903	38.445154	44.999834	36.249517	-6.562440	-2973.427471	-4261.882119	28.680029	60.993595	729.908459	-331.203784	18.107140	10.618200	5.317136	-45.000000	-44.932925	45.000000	-24.596265	448.155463	-6772.640686	22.523477	-43.353528	-711.694102	-335.690326	8.224729	-19.219413	
12.5400	37.259655	10.312651	11.207734	-91.094190	772.462786	11.583719	10.618411	38.504465	44.999704	36.416879	-6.804024	-2973.471407	-4261.801953	28.711556	60.908298	730.009952	-331.249368	18.159445	10.586871	5.350762	-45.000000	-44.880415	45.000000	-24.746150	448.341400	-6772.549655	22.507077	-43.401600	-711.640003	-335.900420	8.202014	-19.237892	
12.5500	37.334570	10.407562	11.246317	-92.838743	772.972672	11.265103	10.695803	38.595617	44.999469	36.635100	-7.115617	-2973.509625	-4261.742688	28.756244	60.771831	730.104891	-331.285542	18.206353	10.545546	5.385241	-45.000000	-44.784209	45.000000	-24.987468	448.506628	-6772.460957	22.501860	-43.438005	-711.585525	-336.155375	8.183273	-19.256582	
12.5600	37.417604	10.540974	11.354603	-94.648636	773.533222	10.947216	10.803419	38.705450	44.999049	36.889335	-7.527781	-2973.502881	-4261.662222	28.782508	60.589387	730.209869	-331.306336	18.264259	10.512647	5.409648	-45.000000	-44.617865	45.000000	-25.335413	448.649580	-6772.363763	22.480269	-43.437221	-711.526298	-336.463245	8.158404	-19.273418	
12.5700	37.520868	10.698950	11.513065	-96.522390	774.145667	10.632948	10.959331	38.850166	44.998295	37.191665	-8.046634	-2973.479910	-4261.597339	28.832820	60.331438	730.307052	-331.311210	18.318006	10.469971	5.424578	-45.000000	-44.351351	45.000000	-25.849396	448.748975	-6772.249880	22.482398	-43.413778	-711.473127	-336.823444	8.140217	-19.289705	
12.5800	37.634847	10.887266	11.733909	-98.458971	774.811221	10.324864	11.156372	39.018556	44.996949	37.526488	-8.682359	-2973.415616	-4261.510586	28.891208	60.013167	730.412365	-331.297937	18.380269	10.431471	5.420068	-45.000000	-43.977858	45.000000	-26.518245	448.807585	-6772.111807	22.492731	-43.360277	-711.417927	-337.234310	8.122978	-19.305758	
12.5900	37.770120	11.122289	12.041449	-100.458286	775.531049	10.025037	11.448246	39.241581	44.994528	37.912570	-9.518970	-2973.312998	-4261.416013	28.997905	59.573718	730.510031	-331.270095	18.438066	10.381366	5.423674	-45.000000	-43.456262	45.000000	-27.445936	448.807188	-6771.944160	22.541104	-43.272720	-711.366821	-337.715333	8.118403	-19.319244	
12.6000	37.913687	11.380570	12.404293	-102.520660	776.306111	9.735018	11.775063	39.466589	44.990215	38.316362	-10.466626	-2973.170944	-4261.292487	29.122349	59.067048	730.608607	-331.229291	18.500059	10.335671	5.391409	-45.000000	-42.830108	45.000000	-28.523691	448.768969	-6771.746655	22.602222	-43.159710	-711.317078	-338.242933	8.116856	-19.331199	
12.6100	38.066655	11.642198	12.779520	-104.646968	777.136924	9.455821	12.121836	39.694554	44.982423	38.733420	-11.461426	-2973.022746	-4261.164176	29.271216	58.521736	730.700169	-331.184606	18.556387	10.280634	5.349918	-45.000000	-42.157622	45.000000	-29.670965	448.717297	-6771.531627	22.680959	-43.045117	-711.270421	-338.793370	8.121409	-19.342034	
12.6200	38.223415	11.903092	13.152919	-106.837355	778.023090	9.188118	12.462880	39.914073	44.968654	39.161179	-12.460114	-2972.862118	-4261.024878	29.418724	57.975549	730.791051	-331.151608	18.610962	10.224554	5.296151	-45.000000	-41.486192	45.000000	-30.804031	448.674722	-6771.308808	22.752824	-42.941367	-711.222980	-339.338254	8.121354	-19.351904	
12.6300	38.382749	12.161773	13.514390	-109.091061	778.963373	8.932288	12.798059	40.166853	44.943459	39.601502	-13.461637	-2972.693179	-4260.878146	29.571446	57.436964	730.882303	-331.142933	18.659037	10.158753	5.269093	-45.000000	-40.852018	45.000000	-31.890146	448.656624	-6771.087857	22.817949	-42.850589	-711.175492	-339.870631	8.119500	-19.359207	
12.6400	38.537195	12.386059	13.815292	-111.405657	779.955600	8.688541	13.055020	40.400103	44.899811	40.026831	-14.337965	-2972.532999	-4260.726219	29.704835	56.962322	730.973051	-331.168404	18.703310	10.094916	5.220186	-45.000000	-40.301741	45.000000	-32.805249	448.683209	-6770.881309	22.858916	-42.788309	-711.128093	-340.357513	8.105468	-19.367135	
